<svg xmlns="http://www.w3.org/2000/svg" xmlns:xlink="http://www.w3.org/1999/xlink" width="500" zoomAndPan="magnify" viewBox="0 0 375 374.999991" height="500" preserveAspectRatio="xMidYMid meet" version="1.0"><defs><g/><clipPath id="3113ac49e9"><path d="M 17.714844 129 L 359.714844 129 L 359.714844 245.878906 L 17.714844 245.878906 Z M 17.714844 129 " clip-rule="nonzero"/></clipPath><clipPath id="b11acd8c9b"><path d="M 17.714844 93 L 359.714844 93 L 359.714844 206 L 17.714844 206 Z M 17.714844 93 " clip-rule="nonzero"/></clipPath><clipPath id="da2210f347"><path d="M 17.714844 55 L 359.714844 55 L 359.714844 167 L 17.714844 167 Z M 17.714844 55 " clip-rule="nonzero"/></clipPath><clipPath id="35d6c8d610"><path d="M 17.714844 17.128906 L 359.714844 17.128906 L 359.714844 125 L 17.714844 125 Z M 17.714844 17.128906 " clip-rule="nonzero"/></clipPath></defs><g clip-path="url(#3113ac49e9)"><path fill="#004a73" d="M 359.492188 193.101562 C 340.445312 208.414062 316.039062 218.945312 290.6875 222.457031 C 259.148438 226.839844 228.546875 220.214844 204.46875 203.816406 C 192.082031 195.378906 181.253906 185.570312 170.753906 176.050781 C 154.640625 161.425781 137.945312 146.328125 116.144531 136.84375 C 116 136.773438 115.820312 136.699219 115.675781 136.664062 C 83.554688 124.5 47.488281 128.011719 17.9375 144.085938 L 17.9375 170.148438 C 43.503906 151.832031 78.125 146.039062 107.636719 157.117188 C 125.996094 165.152344 140.554688 178.367188 155.980469 192.339844 C 167.023438 202.332031 178.46875 212.683594 192.082031 221.988281 C 216.5625 238.675781 244.121094 245.878906 271.351562 245.878906 C 303.035156 245.878906 334.253906 236.070312 359.492188 220.070312 L 359.492188 193.097656 Z M 359.492188 193.101562 " fill-opacity="1" fill-rule="nonzero"/></g><g clip-path="url(#b11acd8c9b)"><path fill="#00a3ea" d="M 359.492188 150.457031 C 336.640625 167.578125 301.261719 186.332031 268.707031 186.4375 L 268.453125 186.4375 C 239.339844 186.4375 220.074219 169.679688 199.722656 151.902344 C 197.695312 150.128906 195.667969 148.390625 193.640625 146.65625 C 170.789062 126.996094 144.863281 104.734375 109.445312 96.554688 C 80.511719 89.890625 49.84375 92.644531 17.902344 104.734375 L 17.902344 125.261719 C 48.753906 112.300781 78.015625 108.863281 105.136719 115.125 C 135.953125 122.21875 158.949219 141.984375 181.183594 161.097656 C 183.175781 162.800781 185.167969 164.539062 187.160156 166.273438 C 208.269531 184.664062 232.132812 205.480469 268.417969 205.480469 L 268.746094 205.480469 C 301.550781 205.371094 334.902344 189.769531 359.457031 173.585938 L 359.457031 150.457031 Z M 359.492188 150.457031 " fill-opacity="1" fill-rule="nonzero"/></g><g clip-path="url(#da2210f347)"><path fill="#00a3ea" d="M 359.492188 106.835938 C 330.015625 127.902344 301.949219 146.21875 274.828125 146.945312 C 246.292969 147.742188 229.019531 130.871094 208.996094 111.359375 C 206.75 109.1875 204.503906 106.980469 202.1875 104.769531 C 177.308594 80.949219 143.339844 63.863281 108.941406 57.890625 C 78.558594 52.640625 48.03125 55.503906 17.9375 66.433594 L 17.9375 86.816406 C 47.164062 74.832031 76.058594 71.539062 105.71875 76.679688 C 136.027344 81.929688 167.167969 97.566406 189.042969 118.527344 C 191.285156 120.699219 193.496094 122.835938 195.703125 125.007812 C 216.382812 145.207031 237.746094 166.058594 272.910156 166.058594 C 273.707031 166.058594 274.539062 166.058594 275.335938 166.058594 C 304.160156 165.261719 331.464844 149.621094 359.492188 130.21875 Z M 359.492188 106.835938 " fill-opacity="1" fill-rule="nonzero"/></g><g clip-path="url(#35d6c8d610)"><path fill="#e5292e" d="M 359.492188 54.125 C 322.230469 88.515625 295.46875 104.480469 275.261719 105.277344 C 263.421875 105.75 253.101562 101.078125 241.730469 90.144531 C 216.960938 66.324219 179.589844 30.308594 108.796875 19.339844 C 77.871094 14.558594 47.453125 17.492188 17.9375 28.0625 L 17.9375 48.40625 C 46.546875 36.859375 75.480469 33.492188 105.863281 38.199219 C 170.71875 48.226562 204.105469 80.40625 228.476562 103.867188 C 242.960938 117.804688 257.335938 124.390625 273.558594 124.390625 C 274.355469 124.390625 275.191406 124.390625 275.988281 124.355469 C 298.4375 123.449219 324.511719 109.984375 359.457031 79.792969 L 359.457031 54.125 Z M 359.492188 54.125 " fill-opacity="1" fill-rule="nonzero"/></g><g fill="#004a73" fill-opacity="1"><g transform="translate(17.738866, 338.116502)"><g><path d="M 25.953125 -52.734375 C 30.359375 -52.734375 34.34375 -52.078125 37.90625 -50.765625 C 41.46875 -49.453125 44.523438 -47.613281 47.078125 -45.25 C 49.628906 -42.882812 51.582031 -40.109375 52.9375 -36.921875 C 54.300781 -33.734375 54.984375 -30.265625 54.984375 -26.515625 C 54.984375 -21.117188 53.726562 -16.332031 51.21875 -12.15625 C 48.71875 -7.988281 45.191406 -4.734375 40.640625 -2.390625 C 36.097656 -0.046875 30.707031 1.125 24.46875 1.125 C 20.90625 1.125 17.566406 0.875 14.453125 0.375 C 11.335938 -0.113281 8.984375 -0.660156 7.390625 -1.265625 L 7.390625 -52.734375 Z M 26.09375 -9.78125 C 29.695312 -9.78125 32.726562 -10.503906 35.1875 -11.953125 C 37.65625 -13.410156 39.507812 -15.378906 40.75 -17.859375 C 41.988281 -20.347656 42.609375 -23.140625 42.609375 -26.234375 C 42.609375 -29.085938 41.972656 -31.695312 40.703125 -34.0625 C 39.441406 -36.4375 37.582031 -38.335938 35.125 -39.765625 C 32.664062 -41.191406 29.675781 -41.90625 26.15625 -41.90625 L 19.203125 -41.90625 L 19.203125 -10.265625 C 20.273438 -10.128906 21.410156 -10.015625 22.609375 -9.921875 C 23.804688 -9.828125 24.96875 -9.78125 26.09375 -9.78125 Z M 26.09375 -9.78125 "/></g></g></g><g fill="#004a73" fill-opacity="1"><g transform="translate(77.082612, 338.116502)"><g><path d="M 36.078125 -58.78125 L 36.078125 -50.34375 L 14.203125 -45.984375 L 14.203125 -53.4375 Z M 41.984375 -20.671875 C 41.984375 -19.785156 41.9375 -18.988281 41.84375 -18.28125 C 41.75 -17.582031 41.65625 -17 41.5625 -16.53125 L 14.765625 -16.53125 C 15.984375 -11.132812 20.109375 -8.4375 27.140625 -8.4375 C 29.910156 -8.4375 32.3125 -8.71875 34.34375 -9.28125 C 36.382812 -9.84375 38.132812 -10.5 39.59375 -11.25 L 39.734375 -1.90625 C 37.859375 -0.78125 35.703125 0.00390625 33.265625 0.453125 C 30.828125 0.898438 28.34375 1.125 25.8125 1.125 C 21.351562 1.125 17.472656 0.269531 14.171875 -1.4375 C 10.867188 -3.15625 8.300781 -5.546875 6.46875 -8.609375 C 4.644531 -11.679688 3.734375 -15.234375 3.734375 -19.265625 C 3.734375 -23.066406 4.585938 -26.515625 6.296875 -29.609375 C 8.003906 -32.703125 10.347656 -35.148438 13.328125 -36.953125 C 16.304688 -38.753906 19.691406 -39.65625 23.484375 -39.65625 C 27.003906 -39.65625 30.15625 -38.878906 32.9375 -37.328125 C 35.726562 -35.785156 37.929688 -33.597656 39.546875 -30.765625 C 41.171875 -27.929688 41.984375 -24.566406 41.984375 -20.671875 Z M 23.421875 -30.3125 C 21.210938 -30.3125 19.347656 -29.640625 17.828125 -28.296875 C 16.304688 -26.960938 15.285156 -25.171875 14.765625 -22.921875 L 31.578125 -22.921875 C 31.429688 -25.222656 30.617188 -27.03125 29.140625 -28.34375 C 27.671875 -29.65625 25.765625 -30.3125 23.421875 -30.3125 Z M 23.421875 -30.3125 "/></g></g></g><g fill="#004a73" fill-opacity="1"><g transform="translate(122.856046, 338.116502)"><g><path d="M 27.921875 -39.65625 C 31.390625 -39.65625 34.53125 -38.800781 37.34375 -37.09375 C 40.15625 -35.382812 42.378906 -33.039062 44.015625 -30.0625 C 45.660156 -27.082031 46.484375 -23.71875 46.484375 -19.96875 C 46.484375 -17.019531 45.953125 -14.265625 44.890625 -11.703125 C 43.835938 -9.148438 42.363281 -6.910156 40.46875 -4.984375 C 38.570312 -3.066406 36.34375 -1.566406 33.78125 -0.484375 C 31.226562 0.585938 28.476562 1.125 25.53125 1.125 C 21.40625 1.125 17.796875 0.1875 14.703125 -1.6875 C 11.609375 -3.5625 9.203125 -6.113281 7.484375 -9.34375 C 5.773438 -12.582031 4.921875 -16.242188 4.921875 -20.328125 L 4.921875 -54.84375 L 16.171875 -54.84375 L 16.171875 -34.59375 C 17.484375 -36.09375 19.113281 -37.3125 21.0625 -38.25 C 23.007812 -39.1875 25.296875 -39.65625 27.921875 -39.65625 Z M 25.671875 -8.859375 C 27.546875 -8.859375 29.1875 -9.328125 30.59375 -10.265625 C 32 -11.203125 33.109375 -12.457031 33.921875 -14.03125 C 34.742188 -15.601562 35.15625 -17.347656 35.15625 -19.265625 C 35.15625 -21.234375 34.742188 -22.988281 33.921875 -24.53125 C 33.109375 -26.082031 32 -27.316406 30.59375 -28.234375 C 29.1875 -29.148438 27.546875 -29.609375 25.671875 -29.609375 C 23.796875 -29.609375 22.117188 -29.148438 20.640625 -28.234375 C 19.160156 -27.316406 18 -26.070312 17.15625 -24.5 C 16.3125 -22.9375 15.890625 -21.171875 15.890625 -19.203125 C 15.890625 -17.273438 16.300781 -15.523438 17.125 -13.953125 C 17.945312 -12.390625 19.09375 -11.148438 20.5625 -10.234375 C 22.039062 -9.316406 23.742188 -8.859375 25.671875 -8.859375 Z M 25.671875 -8.859375 "/></g></g></g><g fill="#004a73" fill-opacity="1"><g transform="translate(173.059168, 338.116502)"><g><path d="M 12.234375 -45.84375 C 10.078125 -45.84375 8.351562 -46.300781 7.0625 -47.21875 C 5.78125 -48.132812 5.140625 -49.457031 5.140625 -51.1875 C 5.140625 -52.96875 5.78125 -54.316406 7.0625 -55.234375 C 8.351562 -56.148438 10.078125 -56.609375 12.234375 -56.609375 C 14.441406 -56.609375 16.164062 -56.148438 17.40625 -55.234375 C 18.644531 -54.316406 19.265625 -52.96875 19.265625 -51.1875 C 19.265625 -49.457031 18.644531 -48.132812 17.40625 -47.21875 C 16.164062 -46.300781 14.441406 -45.84375 12.234375 -45.84375 Z M 6.328125 0 L 6.328125 -38.53125 L 18.078125 -38.53125 L 18.078125 0 Z M 6.328125 0 "/></g></g></g><g fill="#004a73" fill-opacity="1"><g transform="translate(197.457604, 338.116502)"><g><path d="M 6.890625 -27.5625 C 6.421875 -27.5625 5.953125 -27.582031 5.484375 -27.625 C 5.015625 -27.675781 4.59375 -27.75 4.21875 -27.84375 L 4.21875 -33.546875 C 4.40625 -33.492188 4.710938 -33.46875 5.140625 -33.46875 C 6.171875 -33.46875 7.234375 -33.722656 8.328125 -34.234375 C 9.429688 -34.753906 10.367188 -35.53125 11.140625 -36.5625 C 11.921875 -37.59375 12.3125 -38.882812 12.3125 -40.4375 C 12.3125 -41.84375 12.003906 -42.988281 11.390625 -43.875 C 10.785156 -44.769531 10.070312 -45.453125 9.25 -45.921875 C 8.425781 -46.390625 7.640625 -46.644531 6.890625 -46.6875 C 6.703125 -46.925781 6.609375 -47.300781 6.609375 -47.8125 C 6.609375 -48.5625 6.851562 -49.367188 7.34375 -50.234375 C 7.84375 -51.109375 8.617188 -51.875 9.671875 -52.53125 C 10.722656 -53.1875 12.09375 -53.515625 13.78125 -53.515625 C 15.46875 -53.515625 16.988281 -53.054688 18.34375 -52.140625 C 19.707031 -51.222656 20.785156 -49.976562 21.578125 -48.40625 C 22.378906 -46.84375 22.78125 -45.078125 22.78125 -43.109375 C 22.78125 -40.710938 22.394531 -38.625 21.625 -36.84375 C 20.851562 -35.0625 19.859375 -33.5625 18.640625 -32.34375 C 16.953125 -30.65625 15.03125 -29.4375 12.875 -28.6875 C 10.71875 -27.9375 8.722656 -27.5625 6.890625 -27.5625 Z M 6.890625 -27.5625 "/></g></g></g><g fill="#00a3ea" fill-opacity="1"><g transform="translate(224.457602, 338.116502)"><g><path d="M 41.984375 -12.171875 L 41.984375 -0.84375 C 40.671875 -0.132812 39.097656 0.359375 37.265625 0.640625 C 35.441406 0.921875 33.707031 1.0625 32.0625 1.0625 C 28.125 1.0625 24.46875 0.378906 21.09375 -0.984375 C 17.71875 -2.347656 14.773438 -4.257812 12.265625 -6.71875 C 9.765625 -9.175781 7.820312 -12.066406 6.4375 -15.390625 C 5.050781 -18.722656 4.359375 -22.335938 4.359375 -26.234375 C 4.359375 -30.117188 5.050781 -33.722656 6.4375 -37.046875 C 7.820312 -40.378906 9.765625 -43.273438 12.265625 -45.734375 C 14.773438 -48.203125 17.71875 -50.113281 21.09375 -51.46875 C 24.46875 -52.832031 28.148438 -53.515625 32.140625 -53.515625 C 33.773438 -53.515625 35.492188 -53.375 37.296875 -53.09375 C 39.109375 -52.8125 40.671875 -52.34375 41.984375 -51.6875 L 41.984375 -40.21875 C 39.398438 -41.53125 36.351562 -42.1875 32.84375 -42.1875 C 29.75 -42.1875 26.984375 -41.503906 24.546875 -40.140625 C 22.109375 -38.785156 20.1875 -36.910156 18.78125 -34.515625 C 17.375 -32.128906 16.671875 -29.367188 16.671875 -26.234375 C 16.671875 -23.140625 17.375 -20.394531 18.78125 -18 C 20.1875 -15.613281 22.109375 -13.738281 24.546875 -12.375 C 26.984375 -11.019531 29.75 -10.34375 32.84375 -10.34375 C 36.445312 -10.34375 39.492188 -10.953125 41.984375 -12.171875 Z M 41.984375 -12.171875 "/></g></g></g><g fill="#00a3ea" fill-opacity="1"><g transform="translate(271.145099, 338.116502)"><g><path d="M 5.90625 -10.6875 L 5.90625 -54.84375 L 17.65625 -54.84375 L 17.65625 -12.875 C 17.65625 -11.695312 17.984375 -10.828125 18.640625 -10.265625 C 19.296875 -9.703125 20.019531 -9.421875 20.8125 -9.421875 C 21.425781 -9.421875 21.929688 -9.476562 22.328125 -9.59375 C 22.722656 -9.71875 23.0625 -9.875 23.34375 -10.0625 L 23.34375 -0.359375 C 22.738281 0.0664062 21.859375 0.421875 20.703125 0.703125 C 19.554688 0.984375 18.375 1.125 17.15625 1.125 C 14.488281 1.125 12.332031 0.585938 10.6875 -0.484375 C 9.050781 -1.566406 7.84375 -3 7.0625 -4.78125 C 6.289062 -6.5625 5.90625 -8.53125 5.90625 -10.6875 Z M 5.90625 -10.6875 "/></g></g></g><g fill="#00a3ea" fill-opacity="1"><g transform="translate(296.738847, 338.116502)"><g><path d="M 12.234375 -45.84375 C 10.078125 -45.84375 8.351562 -46.300781 7.0625 -47.21875 C 5.78125 -48.132812 5.140625 -49.457031 5.140625 -51.1875 C 5.140625 -52.96875 5.78125 -54.316406 7.0625 -55.234375 C 8.351562 -56.148438 10.078125 -56.609375 12.234375 -56.609375 C 14.441406 -56.609375 16.164062 -56.148438 17.40625 -55.234375 C 18.644531 -54.316406 19.265625 -52.96875 19.265625 -51.1875 C 19.265625 -49.457031 18.644531 -48.132812 17.40625 -47.21875 C 16.164062 -46.300781 14.441406 -45.84375 12.234375 -45.84375 Z M 6.328125 0 L 6.328125 -38.53125 L 18.078125 -38.53125 L 18.078125 0 Z M 6.328125 0 "/></g></g></g><g fill="#00a3ea" fill-opacity="1"><g transform="translate(321.137283, 338.116502)"><g><path d="M 25.8125 1.125 C 21.40625 1.125 17.535156 0.210938 14.203125 -1.609375 C 10.878906 -3.441406 8.300781 -5.90625 6.46875 -9 C 4.644531 -12.09375 3.734375 -15.539062 3.734375 -19.34375 C 3.734375 -23.09375 4.65625 -26.5 6.5 -29.5625 C 8.351562 -32.632812 10.941406 -35.082031 14.265625 -36.90625 C 17.597656 -38.738281 21.46875 -39.65625 25.875 -39.65625 C 27.425781 -39.65625 28.960938 -39.503906 30.484375 -39.203125 C 32.003906 -38.898438 33.28125 -38.488281 34.3125 -37.96875 L 34.171875 -27.84375 C 33.472656 -28.21875 32.515625 -28.566406 31.296875 -28.890625 C 30.078125 -29.222656 28.625 -29.390625 26.9375 -29.390625 C 23.28125 -29.390625 20.429688 -28.414062 18.390625 -26.46875 C 16.347656 -24.53125 15.328125 -22.15625 15.328125 -19.34375 C 15.328125 -16.4375 16.347656 -14 18.390625 -12.03125 C 20.429688 -10.0625 23.28125 -9.078125 26.9375 -9.078125 C 28.625 -9.078125 30.078125 -9.25 31.296875 -9.59375 C 32.515625 -9.945312 33.472656 -10.289062 34.171875 -10.625 L 34.3125 -0.5625 C 33.332031 -0.09375 32.066406 0.300781 30.515625 0.625 C 28.972656 0.957031 27.40625 1.125 25.8125 1.125 Z M 25.8125 1.125 "/></g></g></g></svg>